HIERARCHY
ROOT Hips
{
 OFFSET 0.000000 0.000000 0.000000
 CHANNELS 6 Xposition Yposition Zposition Yrotation Xrotation Zrotation
 JOINT Chest
 {
  OFFSET 0.000000 9.585900 0.002600
  CHANNELS 3 Yrotation Xrotation Zrotation
  JOINT Chest2
  {
   OFFSET 0.000000 9.601200 -0.005300
   CHANNELS 3 Yrotation Xrotation Zrotation
   JOINT Chest3
   {
    OFFSET 0.000000 9.561800 0.000000
    CHANNELS 3 Yrotation Xrotation Zrotation
    JOINT Chest4
    {
     OFFSET 0.000000 9.552100 0.000000
     CHANNELS 3 Yrotation Xrotation Zrotation
     JOINT Neck
     {
      OFFSET 0.000000 14.453000 0.000000
      CHANNELS 3 Yrotation Xrotation Zrotation
      JOINT Head
      {
       OFFSET 0.000000 8.936500 -0.011300
       CHANNELS 3 Yrotation Xrotation Zrotation
       End Site
       {
        OFFSET 0.000000 17.073600 -0.006000
       }
      }
     }
     JOINT RightCollar
     {
      OFFSET -2.921100 9.558500 0.000000
      CHANNELS 3 Yrotation Xrotation Zrotation
      JOINT RightShoulder
      {
       OFFSET -13.519700 0.000000 0.000000
       CHANNELS 3 Yrotation Xrotation Zrotation
       JOINT RightElbow
       {
        OFFSET 0.000000 -29.696600 0.000000
        CHANNELS 3 Yrotation Xrotation Zrotation
        JOINT RightWrist
        {
         OFFSET 0.000000 -24.004700 0.000000
         CHANNELS 3 Yrotation Xrotation Zrotation
         End Site
         {
          OFFSET 0.000000 -17.728500 0.000000
         }
        }
       }
      }
     }
     JOINT LeftCollar
     {
      OFFSET 2.921100 9.558500 0.000000
      CHANNELS 3 Yrotation Xrotation Zrotation
      JOINT LeftShoulder
      {
       OFFSET 13.519700 0.000000 0.000000
       CHANNELS 3 Yrotation Xrotation Zrotation
       JOINT LeftElbow
       {
        OFFSET 0.000000 -29.696600 0.000000
        CHANNELS 3 Yrotation Xrotation Zrotation
        JOINT LeftWrist
        {
         OFFSET 0.000000 -24.004700 0.000000
         CHANNELS 3 Yrotation Xrotation Zrotation
         End Site
         {
          OFFSET 0.000000 -17.728500 0.000000
         }
        }
       }
      }
     }
    }
   }
  }
 }
 JOINT RightHip
 {
  OFFSET -7.771700 -0.012900 -0.001300
  CHANNELS 3 Yrotation Xrotation Zrotation
  JOINT RightKnee
  {
   OFFSET 0.000000 -40.869800 0.001200
   CHANNELS 3 Yrotation Xrotation Zrotation
   JOINT RightAnkle
   {
    OFFSET 0.000000 -39.717900 0.002100
    CHANNELS 3 Yrotation Xrotation Zrotation
    JOINT RightToe
    {
     OFFSET 0.000000 -4.965400 11.033500
     CHANNELS 3 Yrotation Xrotation Zrotation
     End Site
     {
      OFFSET 0.000000 -1.423100 5.872300
     }
    }
   }
  }
 }
 JOINT LeftHip
 {
  OFFSET 7.771700 -0.012900 -0.001300
  CHANNELS 3 Yrotation Xrotation Zrotation
  JOINT LeftKnee
  {
   OFFSET 0.000000 -40.869800 0.001200
   CHANNELS 3 Yrotation Xrotation Zrotation
   JOINT LeftAnkle
   {
    OFFSET 0.000000 -39.717900 0.002100
    CHANNELS 3 Yrotation Xrotation Zrotation
    JOINT LeftToe
    {
     OFFSET 0.000000 -4.965400 11.033500
     CHANNELS 3 Yrotation Xrotation Zrotation
     End Site
     {
      OFFSET 0.000000 -1.423100 5.872300
     }
    }
   }
  }
 }
}
MOTION
Frames: 8
Frame Time: 0.008333
0.000000 85.388000 0.000000 0.000000 -5.767877 0.000000 0.000000 11.653817 0.000000 0.000000 -5.885947 0.000000 0.000000 -0.000000 0.000000 0.000000 -0.000000 0.000000 0.000000 12.528835 0.000000 0.000000 0.711642 0.000000 0.000000 -0.000000 0.000000 0.000000 0.000000 -90.000000 0.000000 -2.309062 0.000000 0.000000 2.309062 0.000000 0.000000 -0.000000 0.000000 0.000000 -0.000000 90.000000 0.000000 -2.309062 0.000000 0.000000 2.309062 0.000000 0.000000 8.520406 0.000000 0.000000 1.905762 0.000000 -0.000000 -4.658285 0.000000 0.000000 -0.000000 0.000000 0.000000 8.520406 0.000000 0.000000 1.905762 0.000000 -0.000000 -4.658285 0.000000 0.000000 -0.000000 0.000000
-15.213676 46.350977 21.682435 174.029374 -33.028685 -2.675106 1.005510 19.863619 1.827842 0.097780 2.494284 0.228205 0.117113 4.029507 0.379947 0.738374 17.130693 1.710965 4.881900 18.379773 -0.470965 9.148289 -1.502033 -2.478853 0.578918 1.614589 -1.258340 4.837002 -10.238133 -19.360880 -85.699576 -82.407573 126.481640 3.105346 9.154619 -24.331783 -0.022938 0.332694 2.201740 15.170455 -15.590149 14.543328 -111.290107 -69.243085 103.354569 -9.922198 19.830080 17.121272 -4.196197 -54.308360 -6.192744 -162.598010 79.187016 -153.187090 -12.418717 -13.888774 -6.239905 0.038857 -0.210168 0.021319 0.027732 -56.522487 13.606381 -108.857939 82.681877 -112.860886 7.325046 -3.970367 3.308167 0.058226 0.223308 0.007646
-15.210984 46.349463 21.682712 174.036716 -33.004219 -2.682302 1.026065 19.872504 1.838003 0.103909 2.497151 0.229241 0.127271 4.044116 0.380005 0.744150 17.128521 1.714566 4.851372 18.347126 -0.457554 9.079277 -1.499123 -2.396651 0.576841 1.590729 -1.245880 4.863600 -10.201983 -19.336076 -85.803599 -82.398752 126.630731 3.128443 9.174951 -24.295745 -0.028553 0.353354 2.182050 15.277727 -15.550340 14.520972 -110.948722 -69.350630 103.276372 -9.893993 19.853099 17.103288 -4.207642 -54.330937 -6.189168 -162.594291 79.188446 -153.178437 -12.413722 -13.890189 -6.243254 0.033655 -0.209471 0.020067 -0.003627 -56.547580 13.611719 -108.950229 82.680580 -112.938455 7.328792 -3.984564 3.279748 0.070612 0.231899 0.015873
-15.209366 46.349481 21.680248 174.057614 -32.995228 -2.684954 1.036971 19.899289 1.838013 0.107977 2.495622 0.230012 0.130245 4.050232 0.380321 0.756539 17.139397 1.715968 4.820426 18.311576 -0.442524 9.059455 -1.516743 -2.382293 0.575626 1.566239 -1.229850 4.891443 -10.170046 -19.302916 -85.921016 -82.391381 126.786500 3.140334 9.182964 -24.272899 -0.035331 0.374144 2.166206 15.366899 -15.506431 14.516422 -110.691901 -69.470681 103.249849 -9.855367 19.869560 17.086192 -4.207441 -54.336201 -6.210032 -162.618701 79.184138 -153.193207 -12.423493 -13.901531 -6.250783 0.036232 -0.209329 0.024778 -0.032433 -56.554984 13.602450 -108.984720 82.683045 -112.970484 7.341776 -3.984415 3.262455 0.067780 0.231771 0.019678
-15.206627 46.349376 21.678263 174.074718 -32.983327 -2.688849 1.054925 19.916932 1.844020 0.109314 2.498327 0.227501 0.133545 4.057739 0.380382 0.746239 17.125196 1.720073 4.820963 18.318649 -0.434060 9.029344 -1.553533 -2.367751 0.595477 1.571739 -1.218766 4.925543 -10.146169 -19.263796 -86.034667 -82.381722 126.928972 3.149443 9.184928 -24.250122 -0.024111 0.411757 2.149979 15.454119 -15.452591 14.527701 -110.509250 -69.602018 103.256799 -9.810342 19.885932 17.064858 -4.213189 -54.344736 -6.216337 -162.631482 79.184180 -153.201690 -12.437046 -13.907750 -6.252556 0.006157 -0.209922 0.023538 -0.068723 -56.564710 13.605434 -109.005124 82.685723 -112.990369 7.347580 -3.980823 3.245355 0.064840 0.230242 0.021446
-15.204356 46.349514 21.676070 174.089439 -32.973310 -2.685491 1.073264 19.932523 1.841615 0.108307 2.506057 0.225406 0.129212 4.055037 0.381500 0.745215 17.120559 1.723375 4.819911 18.324187 -0.428642 8.989305 -1.597611 -2.338762 0.666713 1.613628 -1.206274 4.913189 -10.159477 -19.220144 -86.151995 -82.367222 127.065783 3.164362 9.187414 -24.218903 -0.017984 0.435384 2.140489 15.548639 -15.388071 14.554641 -110.390396 -69.742606 103.282313 -9.768583 19.908609 17.036402 -4.212306 -54.351753 -6.230145 -162.634248 79.185817 -153.200906 -12.467048 -13.916534 -6.247403 0.023662 -0.207416 0.021706 -0.098649 -56.570829 13.602967 -109.010978 82.688966 -112.997866 7.346060 -3.974527 3.225501 0.069832 0.227344 0.025786
-15.200063 46.349521 21.674901 174.097369 -32.959879 -2.689032 1.127905 19.976325 1.852497 0.083050 2.481765 0.230073 0.107398 4.031061 0.385550 0.823475 17.209727 1.708569 4.768136 18.254971 -0.400542 8.945484 -1.644932 -2.308951 0.640913 1.541000 -1.159854 4.941577 -10.133919 -19.169893 -86.284475 -82.351387 127.214164 3.185353 9.188400 -24.177878 -0.087214 0.350396 2.176806 15.668357 -15.291186 14.590013 -110.331900 -69.882249 103.322645 -9.736949 19.942349 17.001035 -4.223488 -54.363193 -6.222667 -162.638985 79.183765 -153.210933 -12.441647 -13.919512 -6.257634 0.030053 -0.206480 0.026530 -0.131918 -56.580734 13.617481 -109.022277 82.693601 -113.010023 7.344500 -3.973410 3.213402 0.069830 0.228818 0.025945
-15.195973 46.349905 21.673668 174.111236 -32.948611 -2.693618 1.139562 19.987127 1.854236 0.093705 2.494753 0.229941 0.107594 4.038454 0.385108 0.857933 17.237304 1.706977 4.740622 18.246545 -0.389821 8.890251 -1.719712 -2.274756 0.638556 1.494148 -1.123710 4.963196 -10.103157 -19.116319 -86.438748 -82.337240 127.384454 3.210445 9.187632 -24.127080 -0.081643 0.402839 2.161234 15.746265 -15.314869 14.635925 -110.319080 -70.001511 103.366669 -9.716279 19.985612 16.963908 -4.242045 -54.371503 -6.206339 -162.585033 79.180766 -153.164443 -12.454647 -13.927924 -6.257156 0.036877 -0.205070 0.025649 -0.148672 -56.590259 13.617090 -109.042715 82.700776 -113.025324 7.338251 -3.972082 3.202898 0.069770 0.229339 0.027561
